<svg xmlns="http://www.w3.org/2000/svg" viewBox="0 0 400 400" width="100%" height="100%" preserveAspectRatio="xMidYMid meet">
  <defs>
    <!-- Dynamic background gradient -->
    <radialGradient id="bgGradient" cx="30%" cy="30%">
      <stop offset="0%" style="stop-color:#3E93FF;stop-opacity:1" />
      <stop offset="40%" style="stop-color:#5B7FFF;stop-opacity:1" />
      <stop offset="100%" style="stop-color:#4f46e5;stop-opacity:1" />
    </radialGradient>
    
    <!-- Glass container gradient -->
    <linearGradient id="glassGradient" x1="0%" y1="0%" x2="100%" y2="100%">
      <stop offset="0%" style="stop-color:#6BA8FF;stop-opacity:0.5" />
      <stop offset="50%" style="stop-color:#3E93FF;stop-opacity:0.4" />
      <stop offset="100%" style="stop-color:#2D7AE5;stop-opacity:0.6" />
    </linearGradient>
    
    <!-- Glossy highlight -->
    <linearGradient id="glossHighlight" x1="0%" y1="0%" x2="100%" y2="100%">
      <stop offset="0%" style="stop-color:#ffffff;stop-opacity:0.8" />
      <stop offset="50%" style="stop-color:#ffffff;stop-opacity:0.3" />
      <stop offset="100%" style="stop-color:#ffffff;stop-opacity:0" />
    </linearGradient>
    
    <!-- U letter gradient with depth -->
    <linearGradient id="uGradient" x1="0%" y1="0%" x2="0%" y2="100%">
      <stop offset="0%" style="stop-color:#ffffff;stop-opacity:1" />
      <stop offset="50%" style="stop-color:#f3f4f6;stop-opacity:1" />
      <stop offset="100%" style="stop-color:#e0e7ff;stop-opacity:1" />
    </linearGradient>
    
    <!-- Inner glow for U -->
    <filter id="innerGlow">
      <feGaussianBlur in="SourceGraphic" stdDeviation="3" result="blur"/>
      <feComposite in="blur" in2="SourceGraphic" operator="out" result="inverse"/>
      <feFlood flood-color="#a78bfa" flood-opacity="0.5" result="color"/>
      <feComposite in="color" in2="inverse" operator="in" result="glow"/>
      <feComposite in="glow" in2="SourceGraphic" operator="over"/>
    </filter>
    
    <!-- Soft shadow -->
    <filter id="softShadow">
      <feGaussianBlur in="SourceAlpha" stdDeviation="4"/>
      <feOffset dx="0" dy="4" result="offsetblur"/>
      <feComponentTransfer>
        <feFuncA type="linear" slope="0.3"/>
      </feComponentTransfer>
      <feMerge>
        <feMergeNode/>
        <feMergeNode in="SourceGraphic"/>
      </feMerge>
    </filter>
    
    <!-- Glow effect -->
    <filter id="glow">
      <feGaussianBlur stdDeviation="6" result="coloredBlur"/>
      <feMerge>
        <feMergeNode in="coloredBlur"/>
        <feMergeNode in="SourceGraphic"/>
      </feMerge>
    </filter>
  </defs>
  
  <!-- Background with gradient -->
  <rect width="400" height="400" fill="url(#bgGradient)" rx="95"/>
  
  <!-- Decorative background circles -->
  <circle cx="100" cy="100" r="80" fill="#3E93FF" opacity="0.15"/>
  <circle cx="320" cy="300" r="100" fill="#2D7AE5" opacity="0.2"/>
  <circle cx="350" cy="80" r="60" fill="#5B7FFF" opacity="0.15"/>
  
  <!-- Main glass container with border -->
  <rect x="25" y="25" width="350" height="350" rx="80" fill="none" stroke="url(#glossHighlight)" stroke-width="2" opacity="0.5"/>
  <rect x="25" y="25" width="350" height="350" rx="80" fill="url(#glassGradient)" opacity="0.4"/>
  


  
  <!-- Enhanced U Letter with shadow -->
  <g filter="url(#softShadow)">
    <path d="M 110 100 L 110 205 Q 110 280 200 280 Q 290 280 290 205 L 290 100 L 250 100 L 250 205 Q 250 242 200 242 Q 150 242 150 205 L 150 100 Z" 
          fill="url(#uGradient)" filter="url(#glow)"/>
  </g>
  
  <!-- U Letter inner highlight -->
  <path d="M 110 100 L 110 130 Q 112 115 125 110 L 135 100 Z" fill="white" opacity="0.6"/>
  <path d="M 250 100 L 250 130 Q 252 115 265 110 L 275 100 Z" fill="white" opacity="0.6"/>
  
  <!-- U Letter soft inner glow -->
  <path d="M 130 120 L 130 205 Q 130 250 200 250 Q 270 250 270 205 L 270 120" 
        fill="none" stroke="#a78bfa" stroke-width="2" opacity="0.3"/>
  
  <!-- Decorative dots with glow -->
  <g filter="url(#glow)">
    <circle cx="265" cy="300" r="10" fill="url(#uGradient)"/>
    <circle cx="300" cy="312" r="8" fill="url(#uGradient)"/>
    <circle cx="325" cy="322" r="6" fill="url(#uGradient)"/>
  </g>
  
  <!-- Dot highlights -->
  <circle cx="262" cy="297" r="4" fill="white" opacity="0.8"/>
  <circle cx="298" cy="309" r="3" fill="white" opacity="0.8"/>
  <circle cx="323" cy="319" r="2" fill="white" opacity="0.8"/>
  
  <!-- Bottom reflection -->
  <ellipse cx="200" cy="360" rx="100" ry="20" fill="white" opacity="0.05"/>
  
  <!-- Border glow -->
  <rect x="25" y="25" width="350" height="350" rx="80" fill="none" stroke="#3E93FF" stroke-width="1" opacity="0.4"/>
</svg>